<svg xmlns="http://www.w3.org/2000/svg" width="144" height="142" viewBox="0 0 144 142" fill="none" role="img" aria-labelledby="title">
  <title id="title">Fluence</title>
  <path d="M71.5234 0C111.024 0.000208112 143.046 31.6907 143.046 70.7832C143.046 109.876 111.024 141.567 71.5234 141.567C32.0223 141.567 0 109.876 0 70.7832C0.000123343 31.6905 32.0224 0 71.5234 0ZM67.5859 19.3066V36.6875C50.2886 38.6229 36.8467 53.1501 36.8467 70.7861C36.847 88.4218 50.2888 102.947 67.5859 104.883V122.265H75.4668V104.883C92.7623 102.946 106.202 88.4207 106.202 70.7861C106.202 53.1513 92.7625 38.6245 75.4668 36.6875V19.3066H67.5859ZM67.5859 97.0195C54.6542 95.1342 44.7288 84.1079 44.7285 70.7861C44.7285 57.4641 54.654 46.4371 67.5859 44.5518V97.0195ZM75.4668 44.5527C88.3969 46.4396 98.3213 57.4653 98.3213 70.7861C98.321 84.1067 88.3968 95.1318 75.4668 97.0186V44.5527Z" fill="white"/>
</svg>
